<svg xmlns="http://www.w3.org/2000/svg" xmlns:xlink="http://www.w3.org/1999/xlink" width="20" height="20" viewBox="0 0 20 20">
  <defs>
    <clipPath id="clip-ico-m-flower">
      <rect width="20" height="20"/>
    </clipPath>
  </defs>
  <g id="ico-m-flower" clip-path="url(#clip-ico-m-flower)">
    <path id="패스_338" data-name="패스 338" d="M18.116,12.654a3.183,3.183,0,0,0-1.4-2.018.457.457,0,0,0-.085-.045A12.953,12.953,0,0,0,14.875,10a13.067,13.067,0,0,0,1.759-.592.605.605,0,0,0,.085-.045,3.206,3.206,0,0,0-3.205-5.545.459.459,0,0,0-.08.05,13.043,13.043,0,0,0-1.4,1.229,13.647,13.647,0,0,0,.375-1.89A3.211,3.211,0,0,0,9.207,0h0A3.2,3.2,0,0,0,6,3.274a13.277,13.277,0,0,0,.367,1.819A13.527,13.527,0,0,0,4.912,3.82,3.2,3.2,0,0,0,1.776,9.405,12.921,12.921,0,0,0,3.539,10a13.577,13.577,0,0,0-1.8.608c-.094.049-.186.1-.273.158A3.2,3.2,0,0,0,3.2,16.659a3.265,3.265,0,0,0,1.776-.528,13.185,13.185,0,0,0,1.4-1.231A13.537,13.537,0,0,0,6,16.8,3.207,3.207,0,0,0,9.206,20h0a3.22,3.22,0,0,0,3.2-3.277,13.234,13.234,0,0,0-.37-1.828,13.456,13.456,0,0,0,1.476,1.284,3.207,3.207,0,0,0,4.6-3.526M14.071,4.8a2.074,2.074,0,0,1,2.072,3.582A11.9,11.9,0,0,1,12,9.306a2.846,2.846,0,0,0-.771-1.428A11.831,11.831,0,0,1,14.071,4.8M7.514,9.885a1.709,1.709,0,1,1,1.71,1.708,1.712,1.712,0,0,1-1.71-1.708M7.74,1.739a2.078,2.078,0,0,1,3.544,1.4,12.006,12.006,0,0,1-1.249,4.041,2.573,2.573,0,0,0-1.655.009A12.03,12.03,0,0,1,7.131,3.205,2.066,2.066,0,0,1,7.74,1.739M1.373,7.114A2.08,2.08,0,0,1,4.3,4.771,11.905,11.905,0,0,1,7.2,7.9a2.837,2.837,0,0,0-.755,1.41A11.907,11.907,0,0,1,2.3,8.4a2.057,2.057,0,0,1-.924-1.291M4.333,15.2a2.074,2.074,0,1,1-2.249-3.486c.056-.036.114-.07.138-.084a11.9,11.9,0,0,1,4.29-.949,2.827,2.827,0,0,0,.78,1.271A11.835,11.835,0,0,1,4.333,15.2m4.874,3.666a1.969,1.969,0,0,1-1.467-.607,2.053,2.053,0,0,1-.613-1.4,12.049,12.049,0,0,1,1.348-4.248,2.531,2.531,0,0,0,1.465.009,12.061,12.061,0,0,1,1.34,4.17,2.078,2.078,0,0,1-2.074,2.076m7.517-4.414a2.061,2.061,0,0,1-2.613.769,11.883,11.883,0,0,1-2.978-3.251,2.83,2.83,0,0,0,.8-1.289,11.9,11.9,0,0,1,4.21.927,2.073,2.073,0,0,1,.58,2.843" transform="translate(1)" fill="#fff"/>
  </g>
</svg>
