<svg xmlns="http://www.w3.org/2000/svg" xmlns:xlink="http://www.w3.org/1999/xlink" width="20" height="20" viewBox="0 0 20 20">
  <defs>
    <clipPath id="clip-ico-m-wallet">
      <rect width="20" height="20"/>
    </clipPath>
  </defs>
  <g id="ico-m-wallet" clip-path="url(#clip-ico-m-wallet)">
    <path id="패스_318" data-name="패스 318" d="M19.154,24.378H6.846A3.845,3.845,0,0,1,3,20.533V9.769A.769.769,0,0,1,3.769,9H19.154A3.845,3.845,0,0,1,23,12.844v7.689A3.845,3.845,0,0,1,19.154,24.378ZM4.538,10.538v10A2.307,2.307,0,0,0,6.846,22.84H19.154a2.307,2.307,0,0,0,2.308-2.307V12.844a2.307,2.307,0,0,0-2.308-2.307Z" transform="translate(-3 -4.378)"/>
    <path id="패스_319" data-name="패스 319" d="M20.692,9.152a.769.769,0,0,1-.769-.769V6.267a1.792,1.792,0,0,0-.6-1.438,1.492,1.492,0,0,0-1.285-.246L5.138,7.513a.769.769,0,0,0-.6.769A.769.769,0,1,1,3,8.283,2.308,2.308,0,0,1,4.792,6.013L17.7,3.083a3,3,0,0,1,2.585.546,3.338,3.338,0,0,1,1.177,2.638V8.383A.769.769,0,0,1,20.692,9.152Z" transform="translate(-3 -2.991)"/>
    <path id="패스_320" data-name="패스 320" d="M25.462,21.154H20.077a3.077,3.077,0,1,1,0-6.154h5.385a.769.769,0,0,1,.769.769v4.615A.769.769,0,0,1,25.462,21.154Zm-5.385-4.615a1.538,1.538,0,1,0,0,3.077h4.615V16.538Z" transform="translate(-6.23 -5.767)"/>
  </g>
</svg>
