<svg xmlns="http://www.w3.org/2000/svg" xmlns:xlink="http://www.w3.org/1999/xlink" width="50" height="50" viewBox="0 0 50 50">
  <defs>
    <clipPath id="clip-ico-car">
      <rect width="50" height="50"/>
    </clipPath>
  </defs>
  <g id="ico-car" clip-path="url(#clip-ico-car)">
    <path id="_3668862_car_drive_service_icon" data-name="3668862_car_drive_service_icon" d="M9.25,30H6.977a1.748,1.748,0,0,1-1.7-1.7v-1.7h5.682v1.7A1.748,1.748,0,0,1,9.25,30ZM28,28.3v-1.7H22.318v1.7a1.748,1.748,0,0,0,1.7,1.7H26.3A1.748,1.748,0,0,0,28,28.3Zm2.273-12.386v8.409H3V15.909a2.322,2.322,0,0,1,1.818-2.273l1.023-.227.682-5A4.348,4.348,0,0,1,10.955,5H22.318a4.222,4.222,0,0,1,4.318,3.409l.8,5.114,1.023.227A2.294,2.294,0,0,1,30.273,15.909ZM10.955,18.636a2.273,2.273,0,1,0-2.273,2.273A2.279,2.279,0,0,0,10.955,18.636ZM22.2,12.955h1.7l-.568-3.977c0-.227-.455-.568-1.023-.568H10.955c-.568,0-1.023.341-1.023.568l-.568,3.977H16.75a2.773,2.773,0,0,1,5.455,0Zm4.659,5.682a2.273,2.273,0,1,0-2.273,2.273A2.279,2.279,0,0,0,26.864,18.636Z" transform="translate(8 8)" fill="#2a2a2a"/>
  </g>
</svg>
