<svg xmlns="http://www.w3.org/2000/svg" xmlns:xlink="http://www.w3.org/1999/xlink" width="50" height="50" viewBox="0 0 50 50">
  <defs>
    <clipPath id="clip-ico-letter">
      <rect width="50" height="50"/>
    </clipPath>
  </defs>
  <g id="ico-letter" clip-path="url(#clip-ico-letter)">
    <path id="패스_334" data-name="패스 334" d="M25,2H5A5,5,0,0,0,0,7V22a5,5,0,0,0,5,5H25a5,5,0,0,0,5-5V7A5,5,0,0,0,25,2Zm2.5,20A2.5,2.5,0,0,1,25,24.5H5A2.5,2.5,0,0,1,2.5,22V7A2.5,2.5,0,0,1,5,4.5H25A2.5,2.5,0,0,1,27.5,7Z" transform="translate(10 11)" fill="#2a2a2a"/>
    <path id="패스_335" data-name="패스 335" d="M25.635,7.17a1.313,1.313,0,0,0-1.941-.1l-6.838,6.647a2.626,2.626,0,0,1-3.71,0L6.307,7.072a1.314,1.314,0,0,0-1.941.1,1.539,1.539,0,0,0,.092,2.074l5.437,5.284L4.459,19.8a1.527,1.527,0,0,0-.451,1.412,1.436,1.436,0,0,0,.939,1.1,1.312,1.312,0,0,0,1.359-.344L12,16.451a5.124,5.124,0,0,0,6,0l5.693,5.519a1.312,1.312,0,0,0,1.359.344,1.436,1.436,0,0,0,.939-1.1,1.527,1.527,0,0,0-.451-1.412l-5.434-5.271,5.436-5.284a1.539,1.539,0,0,0,.092-2.072Z" transform="translate(10 11)" fill="#2a2a2a"/>
  </g>
</svg>
