<svg xmlns="http://www.w3.org/2000/svg" xmlns:xlink="http://www.w3.org/1999/xlink" width="20" height="20" viewBox="0 0 20 20">
  <defs>
    <clipPath id="clip-ico-m-share">
      <rect width="20" height="20"/>
    </clipPath>
  </defs>
  <g id="ico-m-share" clip-path="url(#clip-ico-m-share)">
    <path id="_5402422_link_share_web_send_chain_icon" data-name="5402422_link_share_web_send_chain_icon" d="M21.947,19.316a3.684,3.684,0,1,1-7.368,0,3.432,3.432,0,0,1,.116-.874L9.179,15.695a3.642,3.642,0,0,1-2.495.989,3.684,3.684,0,1,1,0-7.368,3.642,3.642,0,0,1,2.495.989l5.516-2.747a3.432,3.432,0,0,1-.116-.874,3.684,3.684,0,1,1,3.684,3.684,3.642,3.642,0,0,1-2.495-.989l-5.516,2.747a3.358,3.358,0,0,1,0,1.747l5.516,2.747a3.642,3.642,0,0,1,2.495-.989,3.684,3.684,0,0,1,3.684,3.684Z" transform="translate(-2 -3)"/>
  </g>
</svg>
