<svg xmlns="http://www.w3.org/2000/svg" xmlns:xlink="http://www.w3.org/1999/xlink" width="50" height="50" viewBox="0 0 50 50">
  <defs>
    <clipPath id="clip-ico-link">
      <rect width="50" height="50"/>
    </clipPath>
  </defs>
  <g id="ico-link" clip-path="url(#clip-ico-link)">
    <path id="_8726081_link_h_icon" data-name="8726081_link_h_icon" d="M11,14.5A1.5,1.5,0,0,0,12.5,16h9a1.5,1.5,0,1,0,0-3h-9A1.5,1.5,0,0,0,11,14.5ZM14,19H9.5a4.5,4.5,0,0,1,0-9H14a1.5,1.5,0,0,0,0-3H9.5a7.5,7.5,0,0,0,0,15H14a1.5,1.5,0,1,0,0-3ZM24.5,7H20a1.5,1.5,0,0,0,0,3h4.5a4.5,4.5,0,1,1,0,9H20a1.5,1.5,0,1,0,0,3h4.5a7.5,7.5,0,1,0,0-15Z" transform="translate(2.636 26.678) rotate(-45)" fill="#2a2a2a"/>
  </g>
</svg>
