<svg xmlns="http://www.w3.org/2000/svg" xmlns:xlink="http://www.w3.org/1999/xlink" width="50" height="50" viewBox="0 0 50 50">
  <defs>
    <clipPath id="clip-ico-band">
      <rect width="50" height="50"/>
    </clipPath>
  </defs>
  <g id="ico-band" clip-path="url(#clip-ico-band)">
    <path id="패스_336" data-name="패스 336" d="M12.5,6.675a12.53,12.53,0,0,0-3.079.383V4.689A.812.812,0,0,0,9.4,4.527,4.751,4.751,0,0,0,4.712,0,4.752,4.752,0,0,0,.017,4.527c-.01.053-.017,8.9-.017,8.9v5.753c0,.041,0,.08,0,.12A12.5,12.5,0,1,0,12.5,6.675m0,23.081A10.581,10.581,0,0,1,1.92,19.175V4.78a2.791,2.791,0,1,1,5.581,0L7.5,19.05a5.114,5.114,0,0,0,5,5.136,5.01,5.01,0,1,0-3.079-8.962V13.08a6.829,6.829,0,1,1-3.75,6.1V4.689a.962.962,0,0,0-1.921,0V19.175c0,.22.011.437.027.653a8.744,8.744,0,1,0,5.644-8.844V9.051a10.581,10.581,0,1,1,3.079,20.7M9.422,19.175A3.079,3.079,0,1,1,12.5,22.253a3.079,3.079,0,0,1-3.079-3.078" transform="translate(12 9)" fill="#fff"/>
  </g>
</svg>
