<svg xmlns="http://www.w3.org/2000/svg" xmlns:xlink="http://www.w3.org/1999/xlink" width="50" height="50" viewBox="0 0 50 50">
  <defs>
    <clipPath id="clip-ico-map">
      <rect width="50" height="50"/>
    </clipPath>
  </defs>
  <g id="ico-map" clip-path="url(#clip-ico-map)">
    <path id="패스_310" data-name="패스 310" d="M21.731,18.385a.962.962,0,0,1-.673-.269l-4.077-3.942a6.413,6.413,0,0,1,0-9.269h0a6.894,6.894,0,0,1,9.5,0,6.413,6.413,0,0,1,0,9.269L22.4,18.115a.962.962,0,0,1-.673.269Zm0-13.461a4.875,4.875,0,0,0-3.413,1.365h0a4.481,4.481,0,0,0,0,6.5l3.413,3.3,3.413-3.3a4.481,4.481,0,0,0,0-6.5,4.894,4.894,0,0,0-3.413-1.365ZM17.654,5.6Z" transform="translate(9.538 9.993)" fill="#2a2a2a"/>
    <path id="패스_311" data-name="패스 311" d="M10.692,28.077a.962.962,0,0,1-.481-.125L3.481,24.105A.962.962,0,0,1,3,23.269V5.961a.962.962,0,0,1,1.442-.837l6.731,3.846a.962.962,0,0,1,.481.837V27.115a.953.953,0,0,1-.962.962ZM4.923,22.711l4.808,2.75v-15.1L4.923,7.615Z" transform="translate(10 9.917)" fill="#2a2a2a"/>
    <path id="패스_312" data-name="패스 312" d="M10.962,28.1A.953.953,0,0,1,10,27.137V9.829a.962.962,0,0,1,.481-.837l5.769-3.3a.965.965,0,0,1,.962,1.673l-5.288,3.019v15.1l5.288-3.029a.965.965,0,0,1,.962,1.673l-6.731,3.846A.962.962,0,0,1,10.962,28.1Z" transform="translate(9.73 9.895)" fill="#2a2a2a"/>
    <path id="패스_313" data-name="패스 313" d="M24.692,28.423a.962.962,0,0,1-.481-.125l-6.731-3.846A.962.962,0,0,1,17,23.615V14.962a.962.962,0,1,1,1.923,0v8.1l4.808,2.75V15.923a.962.962,0,1,1,1.923,0V27.461a.953.953,0,0,1-.962.962Z" transform="translate(9.461 9.57)" fill="#2a2a2a"/>
    <path id="패스_314" data-name="패스 314" d="M21.885,12.769a2.885,2.885,0,1,1,2.885-2.885,2.885,2.885,0,0,1-2.885,2.885Zm0-3.846a.962.962,0,1,0,.962.962A.962.962,0,0,0,21.885,8.923Z" transform="translate(9.384 9.84)" fill="#2a2a2a"/>
  </g>
</svg>
