<svg xmlns="http://www.w3.org/2000/svg" xmlns:xlink="http://www.w3.org/1999/xlink" width="15" height="15" viewBox="0 0 15 15">
  <defs>
    <clipPath id="clip-ico-s-write">
      <rect width="15" height="15"/>
    </clipPath>
  </defs>
  <g id="ico-s-write" clip-path="url(#clip-ico-s-write)">
    <path id="패스_315" data-name="패스 315" d="M13.577,17.892H4.315A2.315,2.315,0,0,1,2,15.577V6.315A2.315,2.315,0,0,1,4.315,4H7.4a.772.772,0,1,1,0,1.544H4.315a.772.772,0,0,0-.772.772v9.261a.772.772,0,0,0,.772.772h9.261a.772.772,0,0,0,.772-.772V12.49a.772.772,0,1,1,1.544,0v3.087A2.315,2.315,0,0,1,13.577,17.892Z" transform="translate(-2 -2.892)" fill="#333"/>
    <path id="패스_316" data-name="패스 316" d="M13.208,5.87,9.388,9.729a.316.316,0,0,0-.1.178l-.772,2.948a.37.37,0,0,0,.1.37.363.363,0,0,0,.27.077.247.247,0,0,0,.1,0l2.948-.772a.316.316,0,0,0,.178-.1l3.82-3.836Z" transform="translate(-3.484 -3.319)" fill="#333"/>
    <path id="패스_317" data-name="패스 317" d="M19.859,4.02,18.74,2.9a1.173,1.173,0,0,0-1.644,0L16,4.02l2.74,2.74,1.119-1.1a1.173,1.173,0,0,0,0-1.644Z" transform="translate(-5.195 -2.565)" fill="#333"/>
  </g>
</svg>
